# xmcd
#
# Track frame offsets:
#	150
#	15487
#	31043
#	47004
#	65971
#	82484
#	97758
#	123131
#	141460
#	163812
#	182345
#	200291
#	202487
#	225502
#	243003
#	259805
#
# Disc length: 3733 seconds
#
# Revision: 1
# Processed by: cddbd v1.5.2PL0 Copyright (c) Steve Scherf et al.
# Submitted via: audiograbber 1.83.01
#
DISCID=da0e9310
DTITLE=Everlast - Love, War And The Ghost Of Whitey Ford
DYEAR=2008
DGENRE=HipHop
TTITLE0=Kill The Emperor
TTITLE1=Folsom Prison Blues
TTITLE2=Stone In My Hand
TTITLE3=Anyone
TTITLE4=Die In Yer Arms
TTITLE5=Friend
TTITLE6=Everyone
TTITLE7=Naked
TTITLE8=Stay
TTITLE9=Letters Home From The Garden Of Stone
TTITLE10=Tuesday Morning
TTITLE11=Throw A Stone
TTITLE12=Weakness
TTITLE13=Dirty
TTITLE14=The Ocean
TTITLE15=Let It Go
EXTD=
EXTT0=
EXTT1=
EXTT2=
EXTT3=
EXTT4=
EXTT5=
EXTT6=
EXTT7=
EXTT8=
EXTT9=
EXTT10=
EXTT11=
EXTT12=
EXTT13=
EXTT14=
EXTT15=
PLAYORDER=
